<svg width="86" height="71" viewBox="0 0 86 71" fill="none" xmlns="http://www.w3.org/2000/svg">
<g clip-path="url(#clip0_341_2)">
<path fill-rule="evenodd" clip-rule="evenodd" d="M63.4981 5.27839C69.2424 7.45486 72.4616 13.3407 76.0977 18.2932C80.3095 24.0297 85.7935 29.4551 86.4572 36.5493C87.1439 43.8894 84.2296 51.3861 79.7417 57.2435C75.3849 62.9296 68.6572 66.15 61.9221 68.5709C55.7209 70.8 49.1824 70.9142 42.6068 70.5917C36.0141 70.2684 29.6769 69.1184 23.5435 66.6887C16.3187 63.8267 7.16262 62.1626 3.72423 55.1889C0.281238 48.2058 5.94827 40.1488 6.62906 32.3829C7.28252 24.9288 3.68901 16.6927 7.65559 10.3431C11.6238 3.99095 19.5699 0.408635 27.0187 -0.256282C33.8987 -0.870433 39.2404 5.87879 46.0661 6.9144C51.9332 7.80455 57.9505 3.17645 63.4981 5.27839Z" fill="#FF0000"/>
<path d="M54.6164 27.4688C54.4382 27.2892 54.2262 27.1466 53.9927 27.0493C53.7591 26.952 53.5086 26.9019 53.2556 26.9019C53.0025 26.9019 52.752 26.952 52.5185 27.0493C52.2849 27.1466 52.0729 27.2892 51.8947 27.4688L37.6156 41.7671L31.6164 35.7488C31.4314 35.5701 31.213 35.4296 30.9737 35.3353C30.7344 35.241 30.4789 35.1947 30.2217 35.1992C29.9645 35.2036 29.7107 35.2587 29.4748 35.3612C29.2389 35.4637 29.0255 35.6117 28.8468 35.7967C28.6681 35.9817 28.5276 36.2001 28.4333 36.4394C28.339 36.6787 28.2927 36.9343 28.2972 37.1914C28.3016 37.4486 28.3567 37.7024 28.4592 37.9383C28.5617 38.1742 28.7097 38.3876 28.8947 38.5663L36.2547 45.9263C36.4329 46.1059 36.6449 46.2485 36.8785 46.3458C37.112 46.4431 37.3625 46.4932 37.6156 46.4932C37.8686 46.4932 38.1191 46.4431 38.3527 46.3458C38.5862 46.2485 38.7982 46.1059 38.9764 45.9263L54.6164 30.2863C54.8109 30.1068 54.9662 29.889 55.0724 29.6465C55.1786 29.4041 55.2334 29.1422 55.2334 28.8776C55.2334 28.6129 55.1786 28.351 55.0724 28.1086C54.9662 27.8661 54.8109 27.6483 54.6164 27.4688Z" fill="white"/>
</g>
<defs>
<clipPath id="clip0_341_2">
<rect width="86" height="71" fill="white"/>
</clipPath>
</defs>
</svg>
