<svg width="82" height="70" viewBox="0 0 82 70" fill="none" xmlns="http://www.w3.org/2000/svg">
<path fill-rule="evenodd" clip-rule="evenodd" d="M39.9742 4.4835C48.1839 4.20578 57.1753 -3.18144 63.8424 1.61537C70.5033 6.40768 65.7081 17.4846 68.6755 25.1333C71.944 33.5585 83.385 39.1535 81.861 48.0608C80.3666 56.7955 69.7859 60.5671 61.9154 64.6446C55.0803 68.1857 47.6658 69.4338 39.9742 69.7612C31.9315 70.1035 23.5563 70.6767 16.6321 66.5722C9.34798 62.2544 4.04371 55.0269 1.49764 46.9531C-1.03434 38.924 -0.166933 30.2651 2.6847 22.3438C5.46938 14.6084 9.83505 6.74369 17.2516 3.19146C24.2649 -0.167662 32.2019 4.74642 39.9742 4.4835Z" fill="#FF0000" style="fill:#FF0000;fill:color(display-p3 1.0000 0.0000 0.0000);fill-opacity:1;"/>
<path fill-rule="evenodd" clip-rule="evenodd" d="M36.5586 42.69L36.5548 31.19L29.0548 31.1938L29.0586 42.6938L36.5586 42.69Z" fill="white" style="fill:white;fill-opacity:1;"/>
<path fill-rule="evenodd" clip-rule="evenodd" d="M27.25 50.3105L49.75 50.299L49.75 46.4657L27.25 46.4772L27.25 50.3105ZM40.3056 19.6937L40.315 42.6937L47.815 42.6899L47.8056 19.6899L40.3056 19.6937Z" fill="white" style="fill:white;fill-opacity:1;"/>
</svg>
