<svg width="28" height="28" viewBox="0 0 28 28" fill="none" xmlns="http://www.w3.org/2000/svg">
<rect opacity="0.12" x="2.33398" y="2.33301" width="23.3333" height="23.3333" rx="11.6667" fill="#121214" style="fill:#121214;fill:color(display-p3 0.0723 0.0722 0.0765);fill-opacity:1;"/>
<path d="M13.9993 8.1665C10.7793 8.1665 8.16602 10.7798 8.16602 13.9998C8.16602 17.2198 10.7793 19.8332 13.9993 19.8332C17.2193 19.8332 19.8327 17.2198 19.8327 13.9998C19.8327 10.7798 17.2193 8.1665 13.9993 8.1665ZM13.9993 18.6665C11.421 18.6665 9.33268 16.5782 9.33268 13.9998C9.33268 11.4215 11.421 9.33317 13.9993 9.33317C16.5777 9.33317 18.666 11.4215 18.666 13.9998C18.666 16.5782 16.5777 18.6665 13.9993 18.6665Z" fill="#121214" style="fill:#121214;fill:color(display-p3 0.0723 0.0722 0.0765);fill-opacity:1;"/>
<path d="M13.9993 16.9165C15.6102 16.9165 16.916 15.6107 16.916 13.9998C16.916 12.389 15.6102 11.0832 13.9993 11.0832C12.3885 11.0832 11.0827 12.389 11.0827 13.9998C11.0827 15.6107 12.3885 16.9165 13.9993 16.9165Z" fill="#121214" style="fill:#121214;fill:color(display-p3 0.0723 0.0722 0.0765);fill-opacity:1;"/>
</svg>
