<svg width="28" height="28" viewBox="0 0 28 28" fill="none" xmlns="http://www.w3.org/2000/svg">
<rect opacity="0.12" x="2.33398" y="2.33337" width="23.3333" height="23.3333" rx="11.6667" fill="white" style="fill:white;fill-opacity:1;"/>
<path d="M13.9993 8.16663C10.7793 8.16663 8.16602 10.78 8.16602 14C8.16602 17.22 10.7793 19.8333 13.9993 19.8333C17.2193 19.8333 19.8327 17.22 19.8327 14C19.8327 10.78 17.2193 8.16663 13.9993 8.16663ZM13.9993 18.6666C11.421 18.6666 9.33268 16.5783 9.33268 14C9.33268 11.4216 11.421 9.33329 13.9993 9.33329C16.5777 9.33329 18.666 11.4216 18.666 14C18.666 16.5783 16.5777 18.6666 13.9993 18.6666Z" fill="white" style="fill:white;fill-opacity:1;"/>
<path d="M13.9993 16.9166C15.6102 16.9166 16.916 15.6108 16.916 14C16.916 12.3891 15.6102 11.0833 13.9993 11.0833C12.3885 11.0833 11.0827 12.3891 11.0827 14C11.0827 15.6108 12.3885 16.9166 13.9993 16.9166Z" fill="white" style="fill:white;fill-opacity:1;"/>
</svg>
