<svg width="83" height="70" viewBox="0 0 83 70" fill="none" xmlns="http://www.w3.org/2000/svg">
<path fill-rule="evenodd" clip-rule="evenodd" d="M40.7033 4.4835C48.9183 4.20578 57.9156 -3.18144 64.587 1.61537C71.2522 6.40768 66.4539 17.4846 69.4232 25.1333C72.6939 33.5585 84.1423 39.1535 82.6173 48.0608C81.1219 56.7955 70.5344 60.5671 62.6588 64.6446C55.8192 68.1857 48.3999 69.4338 40.7033 69.7612C32.6554 70.1035 24.2747 70.6767 17.346 66.5722C10.0572 62.2544 4.74946 55.0269 2.20174 46.9531C-0.331885 38.924 0.536084 30.2651 3.38957 22.3438C6.17606 14.6084 10.5446 6.74369 17.9659 3.19146C24.9838 -0.167662 32.926 4.74642 40.7033 4.4835Z" fill="#FF0000" style="fill:#FF0000;fill:color(display-p3 1.0000 0.0000 0.0000);fill-opacity:1;"/>
<path d="M51.737 34.9996C51.7378 35.3392 51.6507 35.6732 51.4841 35.9691C51.3175 36.265 51.0771 36.5128 50.7863 36.6884L32.7646 47.7059C32.4608 47.8918 32.1128 47.9933 31.7566 47.9999C31.4004 48.0065 31.0488 47.918 30.7383 47.7434C30.4308 47.5715 30.1745 47.3209 29.996 47.0173C29.8175 46.7137 29.7232 46.368 29.7227 46.0159V23.9834C29.7232 23.6313 29.8175 23.2856 29.996 22.982C30.1745 22.6784 30.4308 22.4278 30.7383 22.2559C31.0488 22.0813 31.4004 21.9928 31.7566 21.9994C32.1128 22.006 32.4608 22.1075 32.7646 22.2934L50.7863 33.3109C51.0771 33.4865 51.3175 33.7343 51.4841 34.0302C51.6507 34.3261 51.7378 34.6601 51.737 34.9996Z" fill="white" style="fill:white;fill-opacity:1;"/>
</svg>
