<svg width="46" height="36" viewBox="0 0 46 36" fill="none" xmlns="http://www.w3.org/2000/svg">
<path d="M29.282 15.2437L21.029 10.4918C20.5444 10.2128 19.995 10.0661 19.4359 10.0666C18.8768 10.067 18.3276 10.2144 17.8434 10.4941C17.3593 10.7738 16.9572 11.1759 16.6775 11.66C16.3978 12.1442 16.2504 12.6934 16.25 13.2525V22.752C16.2432 23.8905 16.8507 24.9435 17.8385 25.506C18.3228 25.7889 18.8734 25.9384 19.4343 25.9392C19.9951 25.9399 20.5462 25.792 21.0312 25.5105L29.282 20.7585C29.7667 20.4799 30.1693 20.0783 30.4493 19.5944C30.7293 19.1105 30.8767 18.5613 30.8767 18.0023C30.8767 17.4432 30.7293 16.894 30.4493 16.4101C30.1693 15.9262 29.7667 15.5246 29.282 15.246V15.2437ZM28.157 18.8033L19.9085 23.5575C19.7656 23.6414 19.6028 23.6856 19.4371 23.6856C19.2714 23.6856 19.1087 23.6414 18.9657 23.5575C18.8227 23.4765 18.704 23.3587 18.6221 23.2162C18.5402 23.0737 18.498 22.9118 18.5 22.7475V13.2525C18.4984 13.0885 18.5408 12.9271 18.6227 12.7851C18.7046 12.643 18.8231 12.5255 18.9657 12.4447C19.1074 12.3585 19.2701 12.3129 19.436 12.3129C19.6019 12.3129 19.7646 12.3585 19.9062 12.4447L28.157 17.199C28.2993 17.2794 28.4177 17.3961 28.5001 17.5372C28.5824 17.6783 28.6259 17.8388 28.6259 18.0023C28.6259 18.1657 28.5824 18.3262 28.5001 18.4673C28.4177 18.6084 28.2993 18.7229 28.157 18.8033ZM38.75 0H7.25C5.46034 0.00178698 3.74449 0.713519 2.479 1.979C1.21352 3.24449 0.501787 4.96034 0.5 6.75V29.25C0.501787 31.0397 1.21352 32.7555 2.479 34.021C3.74449 35.2865 5.46034 35.9982 7.25 36H38.75C40.5397 35.9982 42.2555 35.2865 43.521 34.021C44.7865 32.7555 45.4982 31.0397 45.5 29.25V6.75C45.4982 4.96034 44.7865 3.24449 43.521 1.979C42.2555 0.713519 40.5397 0.00178698 38.75 0ZM43.25 29.25C43.2482 30.4429 42.7735 31.5865 41.93 32.43C41.0865 33.2735 39.9429 33.7482 38.75 33.75H7.25C6.05707 33.7482 4.91352 33.2735 4.06999 32.43C3.22646 31.5865 2.75179 30.4429 2.75 29.25V6.75C2.75179 5.55707 3.22646 4.41352 4.06999 3.56999C4.91352 2.72646 6.05707 2.25179 7.25 2.25H38.75C39.9429 2.25179 41.0865 2.72646 41.93 3.56999C42.7735 4.41352 43.2482 5.55707 43.25 6.75V29.25Z" fill="white" style="fill:white;fill-opacity:1;"/>
</svg>
