<svg width="122" height="94" viewBox="0 0 122 94" fill="none" xmlns="http://www.w3.org/2000/svg">
<path d="M115.584 9.01434C93.4587 40.9336 84.8841 51.038 72.2493 60.0401C65.0415 65.1491 61.1052 67.107 51.4993 70.4124C40.0025 74.3685 31.5224 75.9075 17.4255 76.4918C13.8791 76.6347 10.0812 76.9073 8.99374 77.066C7.90626 77.2247 6.8035 77.2163 6.55931 76.9987C6.31512 76.7811 6.04838 76.7436 5.97475 76.8982C5.7784 77.3105 7.29927 83.8118 8.76227 89.0401L10.1283 93.7415L8.25967 91.7557C-1.23902 81.6214 -1.70836 68.5957 7.21124 63.544C9.29651 62.3524 14.0564 61.1885 14.9761 61.6478C15.1804 61.7499 14.247 62.8468 12.8598 64.0999C8.5733 67.9882 5.96289 72.0755 5.88229 75.0338C5.86655 76.4614 6.10873 76.5504 7.83511 75.9133C8.59148 75.653 12.2679 74.9051 16.0219 74.2597C31.0023 71.8199 40.3934 69.3642 50.6965 65.2586C63.9475 60.0093 73.3877 53.3994 85.7129 40.7977C91.0648 35.3361 93.8916 32.1224 113.148 9.68008C117.679 4.41467 121.502 0.0394945 121.615 0.000454051C121.729 -0.0385864 119.016 3.99772 115.584 9.01434Z" fill="#FF0000" style="fill:#FF0000;fill:color(display-p3 1.0000 0.0000 0.0000);fill-opacity:1;"/>
</svg>
