<svg width="90" height="45" viewBox="0 0 90 45" fill="none" xmlns="http://www.w3.org/2000/svg">
<path d="M74.3938 1.60177C73.6826 1.90239 72.8571 2.34413 72.5578 2.56921C71.8634 3.02945 71.8634 3.02945 75.0744 3.46677C77.8214 3.79146 79.3579 4.27557 80.6792 5.16958C83.2864 6.92905 82.6001 9.6154 77.7084 16.8424C76.506 18.6147 75.7207 20.0527 75.9124 20.0326C76.9984 19.9185 81.4658 16.6414 83.1692 14.7196C87.8437 9.41965 87.2949 3.28052 81.976 1.22494C80.4647 0.673633 79.7452 0.587834 77.8958 0.814356C76.65 0.945208 75.073 1.3045 74.3938 1.60177Z" fill="#FF0000" style="fill:#FF0000;fill:color(display-p3 1.0000 0.0000 0.0000);fill-opacity:1;"/>
<path d="M72.6833 9.88283C72.5303 9.96345 68.3693 10.6264 63.4702 11.3347C35.8579 15.3323 31.5671 17.5258 9.6698 38.7066C4.71797 43.5193 3.26183 45.0278 4.72631 43.9057C7.74775 41.6196 24.0889 30.253 27.7526 27.9317C37.5263 21.6766 44.4767 18.9778 66.3868 12.9648C72.3838 11.3344 73.3791 10.9716 74.1711 10.2107L74.9025 9.48836L73.9476 9.62094C73.4365 9.67462 72.8682 9.79886 72.6833 9.88283Z" fill="#FF0000" style="fill:#FF0000;fill:color(display-p3 1.0000 0.0000 0.0000);fill-opacity:1;"/>
</svg>
