<svg width="117" height="127" viewBox="0 0 117 127" fill="none" xmlns="http://www.w3.org/2000/svg">
<path fill-rule="evenodd" clip-rule="evenodd" d="M67.5088 1.03626C79.9253 -1.50604 94.2276 0.462087 103.778 8.80514C113.119 16.9653 113.592 30.8866 115.685 43.1221C117.478 53.6056 117.619 63.9416 114.97 74.2417C112.159 85.1703 107.643 95.3374 100.1 103.721C90.9446 113.895 81.1773 126.537 67.5088 126.987C53.8007 127.437 42.2652 116.333 33.3252 105.916C25.7082 97.0412 26.7638 84.2607 21.7626 73.6837C15.6001 60.6506 -4.14067 50.6373 0.779395 37.0848C5.7633 23.3564 27.7837 28.6717 40.6213 21.7366C50.8205 16.2268 56.1553 3.36093 67.5088 1.03626Z" fill="#FF0000" style="fill:#FF0000;fill:color(display-p3 1.0000 0.0000 0.0000);fill-opacity:1;"/>
<path d="M52.6879 45.0844C48.087 48.3571 45.3373 51.8695 45.4191 54.2965C45.5186 56.0243 45.8381 56.4313 47.2058 56.7927C49.4147 57.3469 58.4533 53.5598 65.3481 49.1917C77.2128 41.7071 89.4512 42.3736 90.0476 50.5102C90.4319 56.2733 86.2724 61.364 73.0948 70.8486C65.7256 76.1035 62.6807 77.9685 57.0718 80.2709C50.7725 82.9335 49.9359 83.1232 48.0912 82.3425C45.1398 81.0934 45.058 78.6664 48.0416 74.981C50.4046 72.0118 56.9865 66.6957 61.4774 64.0833C65.3432 61.8044 63.8346 63.8846 59.2989 67.1306C53.9311 70.9487 52.9621 72.1154 53.9523 73.7851C55.8405 77.0854 63.0436 73.2828 71.5879 64.3929C78.1131 57.639 79.005 54.4278 74.7624 52.6323C72.8255 51.8126 72.3419 51.9342 64.0254 55.8093C49.3332 62.5323 40.6353 69.5629 38.2421 76.543C37.1657 79.6761 37.2243 80.1903 38.8088 83.3077C41.8157 89.1477 47.8602 91.4339 55.3744 89.5029C64.3122 87.1413 87.9644 70.1275 94.4124 61.3291C95.8176 59.3682 97.4586 56.3109 98.0001 54.4739C98.8808 51.4211 98.8063 50.6827 97.0505 46.4053C93.674 38.1796 88.4615 35.3211 78.2186 35.9885C71.9186 36.4215 57.9523 41.3856 52.6879 45.0844ZM70.7928 39.8056C81.8875 36.9431 88.6131 38.1039 92.8862 43.501C99.0224 51.2091 96.4289 57.887 83.1282 69.1138C69.0224 80.9786 53.8492 89.1293 48.3786 87.684C42.2511 86.1239 38.959 81.6313 40.6737 77.0827C42.7817 71.45 49.413 65.8829 61.9707 59.344C70.5165 54.9134 73.8203 53.8648 74.4956 55.5099C75.36 57.6157 65.5476 67.872 59.8939 70.8079L56.6757 72.4365L60.4018 69.446C67.1141 64.0763 68.6609 61.9035 66.9216 60.08C65.1283 58.1248 52.8723 65.7701 46.7813 72.6533C42.7588 77.1496 42.0065 81.0724 44.7334 83.2595C49.4985 87.0705 57.622 84.5818 71.3484 74.9488C82.3066 67.298 87.0939 63.1798 89.7086 59.3384C92.4109 55.1534 93.0195 52.366 92.0444 48.6909C90.6549 43.2636 85.3548 40.7486 77.7504 41.7171C72.9214 42.3921 69.2039 43.9181 61.8525 48.4736C55.5018 52.3107 49.0451 54.9611 48.1945 54.0031C47.317 52.9792 50.5773 49.411 55.0524 46.5744C60.5934 42.9927 64.0883 41.4812 70.7928 39.8056Z" fill="white" style="fill:white;fill-opacity:1;"/>
</svg>
