<svg width="117" height="116" viewBox="0 0 117 116" fill="none" xmlns="http://www.w3.org/2000/svg">
<g clip-path="url(#clip0_345_4)">
<path fill-rule="evenodd" clip-rule="evenodd" d="M64.2907 0.00516142C81.5124 -0.202666 98.9656 5.8577 109.315 19.6417C119.37 33.0321 117.696 50.6312 114.675 67.1085C111.415 84.8911 108.418 105.673 92.1174 113.451C75.8542 121.211 58.3606 109.498 42.0954 101.742C25.6898 93.9188 5.74403 87.6244 1.08058 70.0395C-3.68898 52.0545 8.146 34.5181 20.6066 20.7122C31.9713 8.12055 47.342 0.209695 64.2907 0.00516142Z" fill="#FF0000"/>
<path d="M47.1738 29.0172C40.8565 31.1651 35.9657 37.8693 37.1884 42.6208C37.8677 45.0291 42.8943 49.9759 45.3397 50.5617C48.1247 51.2777 50.6381 55.3133 49.2795 57.0056C45.2038 62.4731 44.7963 64.9465 47.3096 69.2424C49.3474 72.7572 53.6948 74.9052 58.246 74.6448L61.5744 74.4495L70.7447 83.6922C75.8392 88.8343 80.1866 93 80.5262 93C81.6131 93 80.9338 89.9408 77.4016 78.6803L73.8014 67.2897L75.4317 65.4672C77.6054 62.8636 78.0129 60.9109 76.994 56.6801C75.7713 51.5381 72.8504 48.7392 68.571 48.7392C65.7859 48.7392 65.3784 48.544 64.3595 46.7215C63.5443 45.0942 63.4085 44.3132 64.0198 43.0765C65.9897 38.9758 63.0009 31.1 58.6535 29.0823C55.7326 27.6503 51.1815 27.6503 47.1738 29.0172ZM58.6535 31.7509C59.6724 32.4669 60.4197 33.7036 60.5555 34.9403C61.031 39.2362 52.2004 45.4848 45.6114 45.4848C41.332 45.4848 39.6338 43.9226 39.6338 40.1474C39.6338 37.8042 40.0413 37.0882 42.6905 34.6799C47.6492 30.1237 54.442 28.887 58.6535 31.7509ZM62.7292 39.8871C62.7292 41.7747 59.4687 45.1593 56.0044 46.9167C53.3552 48.2836 51.4532 48.7392 48.8719 48.6742H45.4076L49.3474 47.3724C54.3062 45.7451 57.9743 43.5972 60.08 40.9936C61.8461 38.8457 62.7292 38.4551 62.7292 39.8871ZM64.0877 51.3428C66.669 56.4849 66.6011 57.1358 62.7292 59.6743C60.1479 61.3015 57.7025 62.0826 56.4119 61.5618C55.1892 61.1062 50.2984 52.189 50.8418 51.3428C51.0456 50.9523 51.7928 50.6919 52.4721 50.6919C53.1514 50.6919 55.3251 49.8458 57.3629 48.8043C59.4007 47.6978 61.2348 46.8517 61.4386 46.8517C61.6423 46.7866 62.7971 48.8694 64.0877 51.3428ZM71.356 51.6683C72.1711 52.189 73.1901 53.686 73.5976 54.9227C74.209 56.7452 74.141 57.5914 73.1901 59.5441C70.7447 64.4258 61.3706 69.5678 54.8496 69.5678C52.3363 69.5678 51.3853 69.1773 49.755 67.6802C48.6682 66.6388 47.7851 65.2068 47.7851 64.556C47.7851 63.124 50.2305 59.1535 51.1136 59.1535C51.4532 59.1535 52.4042 60.1299 53.1514 61.3666C53.9665 62.5382 55.1892 63.7098 56.0044 63.9051C58.7215 64.621 64.1557 62.2127 67.4841 58.8281C69.1144 57.1358 69.1144 57.0707 68.0955 54.2718C67.4841 52.7097 67.1445 51.2126 67.3483 51.0174C68.0276 50.3665 69.8616 50.6919 71.356 51.6683ZM71.8315 65.7276C68.0955 69.3726 63.2726 71.846 58.6535 72.4969C54.7817 73.0176 55.8685 72.0412 60.3517 70.9347C64.6312 69.9584 68.9785 67.5501 72.1711 64.4258C73.5297 63.0589 74.7524 62.0826 74.8882 62.2127C75.092 62.3429 73.7335 63.9051 71.8315 65.7276ZM72.8504 71.9761C73.258 73.343 74.4807 77.2484 75.5675 80.633C76.7223 84.0177 77.5374 86.8816 77.4016 86.9467C77.3336 87.0769 74.2769 84.0828 70.6088 80.3076C64.2915 73.7336 64.0877 73.4732 65.5822 72.8874C66.4652 72.4969 68.0955 71.6507 69.1823 70.9347C70.3371 70.1536 71.4239 69.5678 71.6956 69.5678C71.9674 69.5678 72.5108 70.6744 72.8504 71.9761Z" fill="white"/>
</g>
<defs>
<clipPath id="clip0_345_4">
<rect width="117" height="116" fill="white"/>
</clipPath>
</defs>
</svg>
