<svg width="118" height="111" viewBox="0 0 118 111" fill="none" xmlns="http://www.w3.org/2000/svg">
<path fill-rule="evenodd" clip-rule="evenodd" d="M59.0939 13.8664C68.4905 10.2739 75.4879 -0.0745595 85.5417 0.00040516C94.8723 0.0699774 103.561 6.8689 109.325 14.2409C115.048 21.5624 116.055 31.4463 117.335 40.667C118.497 49.04 118.091 57.4411 116.47 65.7368C114.927 73.6371 112.156 81.1598 108.071 88.0861C104.009 94.9714 99.5566 102.085 92.6633 106.097C85.887 110.041 77.4392 112.15 69.8151 110.351C62.2208 108.56 58.7799 98.6901 51.3354 96.3483C44.8405 94.3051 37.998 98.8974 31.2264 98.2124C21.8671 97.2656 10.2735 98.7091 4.10896 91.571C-1.60629 84.9531 3.2098 74.3554 3.05789 65.5952C2.91678 57.4576 -1.61722 47.9601 3.23976 41.4461C8.656 34.1821 20.6841 36.7286 28.2638 31.7901C33.5788 28.3272 34.827 20.4811 40.31 17.2935C45.8788 14.0559 53.0806 16.1654 59.0939 13.8664Z" fill="#FF0000"/>
<path d="M60.8275 27.0224C51.1779 29.8698 45.5749 35.5647 43.6628 44.4137C42.8179 48.3125 43.0402 52.9561 44.3743 58.3443C45.8417 64.3021 45.4415 66.9305 42.9068 68.0694C41.6173 68.6827 41.4839 68.9018 41.5283 70.5664C41.5283 71.6178 41.3949 72.4501 41.1726 72.4501C40.9502 72.4501 40.4166 73.1949 40.0164 74.071C39.5717 74.9909 38.9047 76.2613 38.46 76.8746C37.5707 78.2326 37.9709 79.8097 39.6607 81.6496C40.2387 82.2629 40.8613 83.4895 40.9947 84.3656C41.5728 87.5635 45.8862 89.8415 49.0879 88.7025C50.1551 88.3082 51.0445 88.3082 52.2007 88.6149C54.2462 89.1844 55.8026 88.6149 56.4696 87.0378C56.7809 86.3369 57.359 85.4608 57.8037 85.0227C58.2483 84.5846 58.6041 83.7085 58.6041 83.0952C58.6041 82.4381 59.0932 81.3867 59.7603 80.7296C60.4718 79.9849 60.9609 78.9774 61.0054 77.926C61.2277 75.2976 63.3177 72.9758 68.6094 69.3837C75.5909 64.7401 82.7503 57.5996 85.0626 53.0437C86.5746 50.021 86.7969 49.1887 86.9748 45.7279C87.2861 38.9817 84.7069 33.1554 79.7265 29.4318C75.1462 25.971 67.6311 25.0511 60.8275 27.0224ZM75.1462 28.6432C79.9933 30.4393 83.5952 34.7324 85.1071 40.5149C86.1744 44.589 85.7297 48.1811 83.6841 52.299C81.4607 56.7235 74.1235 63.9954 67.5422 68.2885C64.3405 70.3912 62.4284 71.9683 61.3611 73.4577C60.0715 75.21 59.7158 75.4728 59.2266 74.9909C58.9154 74.6843 58.6041 73.2387 58.5152 71.793C58.4262 69.5589 58.6041 68.9018 59.5824 67.5C62.0281 63.9078 67.053 58.5633 72.0779 54.1827C74.9239 51.6419 77.592 49.0134 77.9477 48.3563C79.4597 45.5089 78.348 43.4938 74.3014 41.5663C72.8784 40.8654 71.322 40.1207 70.8328 39.8578C66.9196 37.8427 65.8524 37.4046 64.8296 37.4046C64.1626 37.4046 63.2733 37.0104 62.8286 36.5285C60.6941 34.2067 56.4696 36.3095 54.2017 40.7778C52.3341 44.4575 50.1551 56.592 50.1551 63.3383C50.1551 65.4848 50.0217 65.9229 49.1768 66.361C48.5988 66.6238 47.8428 67.2371 47.4426 67.7628C46.4198 68.9894 45.6194 68.3761 46.1975 66.8429C46.9534 65.003 46.7311 61.1918 45.7528 57.3806C44.6411 53.3065 44.5077 46.6917 45.4415 43.3186C47.576 35.3019 53.5792 30.1327 63.2733 27.9423C66.8307 27.1538 71.9445 27.4167 75.1462 28.6432ZM61.1832 37.317C61.5835 37.5799 61.3611 37.9303 60.3828 38.6312C58.6486 39.9454 57.8481 42.53 58.6486 44.2385C59.0043 44.9394 59.6269 45.5527 60.0715 45.6403C61.6724 45.947 63.9403 42.8367 63.9403 40.2521C63.9403 39.3759 64.1626 39.1569 65.0964 39.1569C65.719 39.1569 66.9196 39.4635 67.7645 39.8578L69.2765 40.5587L67.7201 42.311C65.3188 45.0708 65.0964 48.0935 67.2754 48.6192C69.4099 49.1449 71.9445 46.4288 71.9445 43.6252C71.9445 42.0043 71.989 42.0043 73.8567 42.9243C76.6582 44.3261 77.3697 45.5965 76.5692 47.6554C76.4358 48.0497 74.1679 50.24 71.5888 52.5618C66.1192 57.4244 60.9164 62.9002 58.7375 66.1857L57.1811 68.4199L55.18 67.3685C54.0683 66.799 52.8677 66.3172 52.5564 66.3172C51.5337 66.3172 51.4447 65.5725 51.9339 59.7461C52.512 52.518 53.4458 47.2612 54.8243 43.4062C55.9805 40.1645 56.7364 39.0255 58.8264 37.7989C60.3384 36.8789 60.3828 36.8351 61.1832 37.317ZM62.3394 40.8216C61.9837 42.311 60.9609 43.9757 60.3828 43.9757C59.5824 43.9757 59.9381 41.4787 60.872 40.2959C61.9837 38.9379 62.7396 39.2007 62.3394 40.8216ZM69.8545 45.2022C69.4099 46.0784 68.6984 46.8669 68.2982 46.9545C67.053 47.1736 67.3199 45.1584 68.6984 43.5376C69.6767 42.3548 69.9435 42.2672 70.2548 42.8367C70.5216 43.3186 70.3882 44.1071 69.8545 45.2022ZM53.9794 68.4637C56.0249 69.3837 57.27 70.8293 57.27 72.3187C57.27 72.8882 57.1811 73.3263 57.0922 73.3263C56.5141 73.3263 48.999 69.2084 48.8656 68.858C48.7766 68.5951 48.999 68.2447 49.3102 68.0256C50.2885 67.4123 52.0228 67.5876 53.9794 68.4637ZM51.2668 72.2311C56.1583 74.5967 59.4935 77.0499 59.4935 78.2326C59.4935 78.5831 59.2266 79.1964 58.9154 79.6783C58.026 80.8611 56.8698 80.423 50.1107 76.2175C44.1964 72.5816 42.1953 70.8293 42.8179 69.8217C43.3515 68.9456 46.0641 69.7341 51.2668 72.2311ZM47.7094 76.5242C49.8883 77.926 52.9566 79.7659 54.4686 80.642C57.27 82.1753 57.7592 82.8762 56.6475 83.7961C56.2028 84.1466 55.5803 84.1028 54.1128 83.6209C49.7105 82.0876 41.2615 76.6118 41.2615 75.2976C41.2615 74.4214 42.5956 73.2825 43.1736 73.6329C43.4849 73.8081 45.486 75.0785 47.7094 76.5242ZM43.5294 79.503C46.5977 81.7372 52.1562 84.8037 54.0683 85.2856C54.7798 85.4608 55.0911 85.8112 54.9577 86.3369C54.6909 87.7825 52.6009 87.5197 48.1985 85.4608C42.64 82.8762 38.7268 79.284 39.7051 77.707C40.1053 77.0499 40.2387 77.0937 43.5294 79.503ZM47.8873 87.2131C47.9762 87.3007 47.4426 87.3445 46.6866 87.3445C45.3526 87.3445 42.5956 85.5484 42.5956 84.6723C42.5956 84.3656 46.82 86.3807 47.8873 87.2131Z" fill="white"/>
</svg>
