<svg width="117" height="99" viewBox="0 0 117 99" fill="none" xmlns="http://www.w3.org/2000/svg">
<g clip-path="url(#clip0_345_6)">
<path fill-rule="evenodd" clip-rule="evenodd" d="M60.6005 0.0364686C71.0031 0.47563 79.588 6.91105 88.5178 12.2785C98.4417 18.2435 111.181 22.1469 115.373 32.9588C119.609 43.8833 114.816 56.2628 109.651 66.7781C105.015 76.2169 96.8021 82.8747 88.024 88.641C79.6484 94.1428 70.6135 98.9063 60.6005 98.9988C50.5283 99.0919 41.8879 93.5206 32.807 89.1514C21.3825 83.6546 5.03841 82.254 0.866328 70.2582C-3.29316 58.2986 8.5747 47.0245 14.2135 35.6903C18.8983 26.2735 22.5909 16.2496 30.921 9.84699C39.3953 3.33346 49.9315 -0.413934 60.6005 0.0364686Z" fill="#FF0000"/>
<path d="M47.8137 25.0498C47.4846 25.653 46.6067 28.7792 45.8934 32.015C44.4121 38.4866 44.9607 37.7188 37.5539 42.929C35.03 44.7388 33.0549 46.4938 33 47.0423C33 47.5359 34.9203 49.62 37.2247 51.704C45.0156 58.5596 44.3572 57.5175 44.7961 64.044C45.0156 67.2798 45.4545 70.4059 45.8386 71.1189C46.5518 72.49 52.4773 76 54.1782 76C56.0436 76 60.1037 73.0384 62.6275 69.8026L64.9867 66.7862L67.7849 67.7734C72.0095 69.1993 77.7704 70.1317 80.2394 69.8026C83.1473 69.4187 84.5738 68.1024 84.5738 65.799C84.5738 63.9891 82.1597 58.8886 79.8553 55.8173L78.4837 54.0623L81.1721 49.949C85.4516 43.6419 86.11 40.1319 83.3119 38.5963C81.8305 37.7736 75.2466 37.8285 72.0644 38.706L69.6503 39.3092L64.5478 33.9345C60.378 29.4921 58.6223 28.0662 55.056 26.2015C50.0632 23.6238 48.6916 23.4044 47.8137 25.0498ZM51.9287 26.7499C52.9163 27.1887 53.2455 27.6274 52.9163 28.2307C52.6968 28.7243 52.3676 32.015 52.203 35.5798L51.9287 42.1063L45.674 45.2873C39.6388 48.3585 39.3096 48.4682 37.8282 47.7004C37.0052 47.2617 36.2919 46.7132 36.3468 46.4938C36.3468 46.2745 38.5963 44.5194 41.3945 42.5451C45.8934 39.3092 46.4421 38.706 46.8262 36.7864C47.4846 33.2764 49.0208 26.9693 49.2951 26.4757C49.6243 25.9273 50.2827 25.9821 51.9287 26.7499ZM63.6699 35.7992L68.9371 41.3385L72.5033 40.5707C76.9475 39.6383 81.3916 39.5835 82.2694 40.461C83.6959 41.8869 82.3792 45.397 78.4837 50.6071C77.2766 52.1976 76.3439 53.5687 76.3439 53.7333C76.3439 53.8978 77.551 55.927 79.0872 58.2305C82.2146 63.0019 83.257 65.9087 82.2694 67.1152C81.2818 68.3218 73.7104 67.6637 68.553 66.0184L64.3283 64.5924L61.8045 67.8282C57.4153 73.4223 53.9038 75.2322 52.3127 72.7093C51.3252 71.1189 50.1181 65.4699 49.6792 60.3146L49.35 55.8722L45.5643 53.0203C43.4794 51.4847 41.7785 50.0039 41.7785 49.7845C41.7785 49.5651 44.5218 47.9746 47.9235 46.3293L54.0684 43.258L54.1233 36.4574C54.1233 32.728 54.3428 29.3276 54.5622 28.9437C55.3304 27.792 57.909 29.7664 63.6699 35.7992ZM44.2475 54.4462L47.5394 57.1336L47.9235 61.4663C48.1429 63.8794 48.5819 67.0604 48.9111 68.5412C49.5695 71.5028 49.2951 72.2158 48.0881 71.0092C47.4846 70.4607 47.0456 68.1573 46.7164 63.9891C46.3872 60.5888 45.9483 57.353 45.6191 56.8594C45.3448 56.3109 44.1926 55.1592 43.0953 54.2817C41.998 53.4042 40.5715 52.2525 39.9131 51.704C37.3344 49.5103 40.9555 51.8137 44.2475 54.4462Z" fill="white"/>
</g>
<defs>
<clipPath id="clip0_345_6">
<rect width="117" height="99" fill="white"/>
</clipPath>
</defs>
</svg>
