<svg width="117" height="143" viewBox="0 0 117 143" fill="none" xmlns="http://www.w3.org/2000/svg">
<path fill-rule="evenodd" clip-rule="evenodd" d="M66.1837 1.01579C48.7474 0.410741 37.0485 17.3204 25.1153 29.9749C13.7514 42.0257 2.05072 54.3726 0.370514 70.807C-1.47552 88.8634 3.56145 107.433 15.8215 120.88C28.6343 134.933 47.1092 143.321 66.1837 142.991C84.9693 142.665 106.089 135.705 114.82 119.164C122.834 103.982 106.322 87.8324 104.286 70.807C102.719 57.7043 110.813 44.3257 104.482 32.729C96.2427 17.6372 83.4443 1.61474 66.1837 1.01579Z" fill="#FF0000"/>
<path d="M57.9896 46.041C50.8327 48.4321 45.7134 52.3176 43.3278 57.1993C42.2841 59.2417 42.135 60.3376 42.135 64.8707C42.135 70.0514 42.1847 70.2008 44.1727 74.2856L46.2602 78.4201L34.6301 89.9272C24.0437 100.338 23 101.584 23 103.078C23 103.975 23.3479 105.37 23.6958 106.117C24.5407 107.761 27.4731 110.401 28.9144 110.899C30.8528 111.497 32.8905 109.853 48.8943 94.6595L56.1507 87.7852L59.2322 88.7815C64.6993 90.4752 71.0611 89.8276 76.4288 87.1376C79.56 85.5436 83.8343 81.0603 85.5738 77.5733C91.2894 66.3153 86.5181 52.0187 75.3354 46.7384C72.3036 45.3436 71.409 45.1443 66.7371 45.0447C62.3633 44.8953 60.9717 45.0945 57.9896 46.041ZM74.391 48.2826C78.8144 50.3748 81.7965 53.264 83.884 57.548C87.9595 65.867 86.7169 75.0328 80.7031 81.409C74.7389 87.7354 66.4885 89.6781 58.4867 86.6893C54.5106 85.1949 48.2482 78.9681 45.962 74.2358C40.793 63.4759 43.7254 54.4596 54.1627 49.528C59.3316 47.0373 62.2639 46.3897 67.085 46.5889C70.3652 46.7384 71.8066 47.0871 74.391 48.2826ZM51.0315 83.6008L54.61 86.9384L52.4728 88.8811C50.7333 90.4752 50.2363 90.7242 49.441 90.2759C47.9003 89.4291 43.8745 84.7465 43.8745 83.7502C43.8745 83.003 46.5584 80.3131 47.2542 80.2633C47.3536 80.2633 49.0434 81.7577 51.0315 83.6008ZM45.3655 88.8313L48.8943 92.3681L47.8009 93.5636C47.1548 94.1614 46.3596 94.7094 45.9123 94.7094C44.8685 94.7094 40.4948 90.0268 40.0972 88.4826C39.8984 87.5859 40.0475 86.8885 40.6439 86.241C41.1409 85.693 41.6379 85.2447 41.6877 85.2447C41.7871 85.2447 43.4769 86.8387 45.3655 88.8313ZM42.632 94.6595L44.5703 96.3532L40.3954 100.338C34.4313 105.918 30.5049 109.155 29.7097 109.155C28.1192 109.155 24.491 104.971 24.491 103.128C24.491 102.779 27.5228 99.4417 31.3001 95.6558L38.0595 88.7815L39.4014 90.8737C40.0972 92.0194 41.5882 93.7131 42.632 94.6595Z" fill="white"/>
<path d="M60.1267 49.0796C47.1547 52.8157 42.284 62.4796 47.7511 73.6878C49.2422 76.8261 53.6159 81.8075 56.3494 83.551C65.1963 89.1302 77.6216 85.2945 82.4426 75.4811C83.7348 72.7911 83.8839 72.0937 83.8839 67.3116C83.8839 62.6789 83.7348 61.7324 82.542 59.2417C79.4605 52.6164 73.7449 48.8305 66.4885 48.5815C64.1525 48.4818 61.5184 48.6811 60.1267 49.0796ZM71.9556 51.2216C73.6952 51.7696 75.3353 52.9153 77.5222 55.1071C80.1563 57.7473 80.703 58.6439 81.6474 61.7822C84.2815 70.4997 80.703 78.9183 72.7508 82.8536C70.8622 83.8 69.6197 83.9993 65.743 83.9993C59.9776 83.9993 57.4926 82.9532 53.5165 78.9183C46.2601 71.496 45.3158 61.1346 51.3793 55.6053C56.8962 50.6239 65.0969 48.8804 71.9556 51.2216Z" fill="white"/>
<path d="M60.6238 51.4209C57.94 52.0685 54.9082 53.7123 54.3118 54.9079C53.5165 56.4023 54.8088 58.1458 57.2938 58.893C61.3196 60.0885 70.2658 57.7473 72.0551 55.0573C72.9994 53.6127 72.5521 52.1681 70.912 51.4707C69.4706 50.7733 63.4071 50.7733 60.6238 51.4209ZM69.6197 52.6662C72.2042 53.3636 70.1167 55.4558 65.6436 56.6514C59.8783 58.1458 54.2621 57.1495 56.4489 55.0075C58.0891 53.3138 66.4886 51.8692 69.6197 52.6662Z" fill="white"/>
</svg>
