<svg width="117" height="104" viewBox="0 0 117 104" fill="none" xmlns="http://www.w3.org/2000/svg">
<g clip-path="url(#clip0_345_8)">
<path fill-rule="evenodd" clip-rule="evenodd" d="M59.8493 0.415756C68.0041 -1.36186 76.0317 2.95607 83.8425 5.9021C92.8898 9.31451 103.156 11.4299 109.168 19.0176C115.389 26.8682 117.625 37.5656 116.854 47.5618C116.105 57.2659 110.829 65.9187 104.953 73.6664C99.5419 80.7999 92.1799 85.7749 84.4521 90.28C76.7043 94.7968 68.6348 98.1828 59.8493 99.9604C49.5003 102.054 37.8396 106.943 28.7563 101.549C19.6608 96.1473 20.1448 82.7721 15.1659 73.4233C10.3868 64.4497 0.191455 57.7325 0.00402043 47.5618C-0.18349 37.3871 6.21181 27.4194 14.2024 21.1428C21.5829 15.3454 32.6674 19.0739 41.2085 15.1957C48.55 11.8621 51.9738 2.13249 59.8493 0.415756Z" fill="#FF0000"/>
<path d="M56.5738 27.2622C49.2085 28.0885 44.4969 30.292 40.4351 34.9194C32.7991 43.5682 33.2865 60.1497 41.41 68.1926C44.2802 71.0572 49.046 73.5912 54.1367 74.9684C58.1443 76.0702 74.2288 76.4007 75.2036 75.4091C76.016 74.5828 76.8825 65.8238 76.3409 64.3364C75.5286 62.1329 71.6834 60.3701 65.7804 59.4887C62.8018 59.048 58.6859 58.1666 56.6821 57.5055C52.5662 56.2385 51.6455 54.9715 52.1871 51.5009C52.7828 47.81 55.5448 45.2209 59.769 44.6149C61.5562 44.3395 70.1671 44.8353 76.016 45.5514C76.8825 45.6616 77.2616 45.0556 78.0198 42.6318C78.5613 40.9791 78.9946 38.5001 78.9946 37.1229C79.0487 34.9745 78.7238 34.2033 76.8283 31.8896C74.0663 28.4741 74.1205 28.5292 70.1671 27.8131C65.1847 26.9868 60.7438 26.7664 56.5738 27.2622ZM68.7048 29.4657C73.0915 30.2369 73.6331 30.6777 73.6331 33.2117C73.6331 37.7289 73.958 37.5086 64.8056 37.7289C57.0612 37.9493 56.4113 38.0594 53.4327 39.5468C51.4289 40.5384 49.8584 41.7503 49.1002 42.9623C48.1254 44.5047 47.638 44.8353 46.5548 44.6149C45.7966 44.5047 43.6845 44.1742 41.789 43.9539C39.9477 43.7886 38.323 43.403 38.1606 43.1826C38.0522 42.9623 38.5397 41.53 39.2978 39.9875C40.8684 36.7924 44.3344 33.3219 47.638 31.6141C52.512 29.0801 61.3395 28.1987 68.7048 29.4657ZM77.1533 38.2247C76.6658 41.4198 76.1243 41.9707 75.3119 39.9875C74.7704 38.7205 74.7704 37.8391 75.2578 35.9661C75.8535 33.7075 75.9618 33.6524 76.72 34.644C77.2616 35.4152 77.3699 36.4619 77.1533 38.2247ZM69.463 39.7121C72.7666 39.9875 73.1998 40.2079 73.958 41.5851C74.3371 42.4114 74.7162 43.2377 74.7162 43.3479C74.7162 43.403 73.3081 43.3479 71.6293 43.1275C65.293 42.3012 58.3609 42.5767 55.9239 43.6784C52.837 45.1107 50.3458 48.6914 50.3458 51.6662C50.2916 53.7595 50.2375 53.8697 49.5334 52.8781C48.342 51.2806 48.5586 47.6448 49.9667 45.1658C52.512 40.5384 59.065 38.6654 69.463 39.7121ZM44.6593 46.2676C47.0964 46.5981 47.0964 46.6532 46.7714 48.4711C45.9591 52.823 49.371 57.1199 55.274 59.1031C57.1695 59.709 61.2854 60.7006 64.4265 61.2515L70.1129 62.2431L69.9504 65.4933C69.8963 67.2561 69.6797 68.8537 69.5172 69.0189C69.3547 69.1842 66.2678 69.2944 62.6393 69.2944C45.9049 69.1291 36.8066 62.6287 36.8066 50.895C36.8066 49.2423 36.9691 47.2591 37.1857 46.5981C37.5107 45.1658 36.915 45.2209 44.6593 46.2676ZM74.6079 66.0992C74.7162 66.9256 74.6621 68.7435 74.4454 70.0656L74.0663 72.5445L72.8207 71.2224C71.6293 70.0105 71.5751 69.5698 71.8459 66.4298C72.1709 63.0694 72.1709 63.0143 73.3081 63.7305C73.958 64.1712 74.5537 65.2178 74.6079 66.0992ZM45.5258 67.8621C50.075 70.0656 54.1367 70.8368 62.3685 71.1123C69.7338 71.3877 70.3837 71.4979 71.4668 72.6547L72.6041 73.8667L68.9215 74.1972C64.5889 74.5277 56.6821 73.8116 53.0536 72.7098C49.8042 71.7182 45.6342 69.5147 43.5762 67.6968C41.789 66.0992 41.8974 66.0992 45.5258 67.8621Z" fill="white"/>
</g>
<defs>
<clipPath id="clip0_345_8">
<rect width="117" height="104" fill="white"/>
</clipPath>
</defs>
</svg>
