<svg width="90" height="47" viewBox="0 0 90 47" fill="none" xmlns="http://www.w3.org/2000/svg">
<path d="M73.6996 1.8449C72.9956 2.16089 72.1804 2.62045 71.8863 2.85198C71.2025 3.32718 71.2025 3.32718 74.4201 3.69469C77.1717 3.95966 78.7174 4.41029 80.057 5.27541C82.7001 6.97784 82.0727 9.67847 77.3424 17.0099C76.1796 18.8079 75.4262 20.2627 75.6173 20.2384C76.6999 20.1008 81.0922 16.7274 82.7522 14.7691C87.3075 9.36892 86.6258 3.24315 81.2669 1.30354C79.745 0.785173 79.0242 0.715018 77.1814 0.981638C75.9396 1.13951 74.3718 1.53295 73.6996 1.8449Z" fill="white" style="fill:white;fill-opacity:1;"/>
<path d="M72.1688 10.1611C72.0176 10.245 67.8747 10.9982 62.9954 11.8126C35.4943 16.4088 31.2551 18.695 9.83727 40.3462C4.99438 45.2652 3.5723 46.805 5.01111 45.6514C7.98021 43.3002 24.06 31.5815 27.67 29.1812C37.2991 22.7153 44.1847 19.8663 65.9448 13.379C71.9011 11.6188 72.8876 11.2345 73.6624 10.4565L74.3774 9.7185L73.4262 9.87178C72.9168 9.93655 72.3517 10.0731 72.1688 10.1611Z" fill="white" style="fill:white;fill-opacity:1;"/>
</svg>
