<svg width="501" height="591" viewBox="0 0 501 591" fill="none" xmlns="http://www.w3.org/2000/svg">
<path fill-rule="evenodd" clip-rule="evenodd" d="M259.8 30.5393C318.743 29.8845 382.695 -21.28 431.963 11.0831C481.341 43.518 469.816 119.477 482.9 177.088C493.273 222.763 502.282 266.795 500.667 313.606C498.876 365.508 507.93 425.282 473.01 463.722C438.116 502.133 374.242 485.612 326.321 505.525C270.004 528.927 228.897 597.894 168.385 590.304C108.851 582.837 62.804 525.013 39.8178 469.59C18.8164 418.952 58.5373 363.287 51.6745 308.898C45.002 256.018 -6.0594 213.564 0.843711 160.713C8.37719 103.036 38.1074 41.0059 90.0775 14.8812C141.888 -11.1635 201.815 31.1835 259.8 30.5393Z" fill="white"/>
</svg>
