<svg width="596" height="543" viewBox="0 0 596 543" fill="none" xmlns="http://www.w3.org/2000/svg">
<path fill-rule="evenodd" clip-rule="evenodd" d="M0.557341 196.123C7.29806 122.504 26.7134 22.7189 97.9414 2.92484C175.317 -18.5776 227.713 96.0796 306.609 111.072C369.33 122.991 431.944 51.8683 490.414 77.5064C550.42 103.818 597.603 172.316 595.639 237.807C593.692 302.756 514.024 333.58 481.057 389.575C455.505 432.976 466.714 496.82 425.83 526.232C384.572 555.914 328.224 537.217 277.411 536.082C223.518 534.878 163.152 552.418 120.532 519.411C77.6486 486.2 83.1118 421.841 64.2406 370.99C42.1162 311.373 -5.24085 259.448 0.557341 196.123Z" fill="white"/>
</svg>
