<svg width="43" height="27" viewBox="0 0 43 27" fill="none" xmlns="http://www.w3.org/2000/svg">
<path d="M2.88691 8.85067C5.48438 8.96955 11.5551 9.81556 15.722 10.6138C19.9181 11.4189 31.5833 14.6047 33.5709 15.4754C36.0282 16.5805 30.9391 12.7538 27.009 10.5597C23.1082 8.37254 21.093 7.61889 16.699 6.73619C11.7714 5.75843 8.83461 5.89925 4.98809 7.27709C1.94737 8.3818 1.38419 8.80486 2.88691 8.85067Z" fill="#FF0000" style="fill:#FF0000;fill:color(display-p3 1.0000 0.0000 0.0000);fill-opacity:1;"/>
<path d="M24.6916 23.2634C30.5486 24.4914 34.3151 24.2376 37.2083 22.4494C40.8316 20.1849 41.3011 15.9713 38.3949 11.7949C37.1911 10.0899 34.0449 7.06155 33.3134 6.8889C33.1379 6.84746 33.5415 8.14738 34.234 9.7935C36.9063 16.1386 36.9584 17.8807 34.6285 19.2458C33.5435 19.9164 29.8351 20.7091 24.8496 21.4165C22.5788 21.7454 20.7384 22.0832 20.7039 22.2295C20.6763 22.3466 22.4765 22.8333 24.6916 23.2634Z" fill="#FF0000" style="fill:#FF0000;fill:color(display-p3 1.0000 0.0000 0.0000);fill-opacity:1;"/>
</svg>
