<svg width="82" height="104" viewBox="0 0 82 104" fill="none" xmlns="http://www.w3.org/2000/svg">
<path d="M41.5048 1.85471C31.8223 2.80067 21.8245 5.36831 15.2044 8.65668C11.9618 10.2783 7.2782 13.3415 7.2782 13.837C7.2782 14.1073 7.68352 13.882 10.3406 12.0802C14.754 9.10714 24.4365 5.90886 34.074 4.24215C40.3789 3.16104 56.0961 3.16104 60.8698 4.24215C65.4184 5.23317 70.6875 7.93594 71.9935 9.91798C72.9842 11.3595 73.0293 11.855 73.0293 20.0534C73.0293 30.9546 73.7949 38.6124 76.4519 54.1083C79.6945 73.298 79.6044 79.6045 76.0917 86.1812C72.3087 93.2985 63.1666 97.5779 47.3593 99.5599C31.6872 101.542 22.0497 101.632 18.537 99.8302C11.8267 96.3616 6.42254 82.9379 3.94562 63.568C2.54953 52.8921 1.7389 37.216 1.37862 15.819C1.33359 11.5847 1.33359 11.5396 0.883237 14.0172C0.252747 17.756 0.748132 49.6938 1.6038 58.6129C3.36016 76.8116 6.2424 88.1632 10.881 95.2355C13.1778 98.8392 15.5196 100.911 18.8522 102.398C24.1213 104.785 45.5129 103.659 59.5188 100.236C71.408 97.3527 78.5236 91.2714 80.9104 82.127C81.721 78.8837 81.8561 71.4961 81.1806 66.2708C80.9104 64.4239 80.0097 58.9733 79.154 54.1984C76.2268 38.252 75.6863 33.4321 75.3711 21.5849C75.0559 11.2694 74.9658 10.3684 74.1101 9.19724C71.7683 5.99895 67.2198 3.7016 61.0049 2.48535C56.7266 1.67451 46.864 1.35919 41.5048 1.85471Z" fill="#FF0000"/>
<path d="M30.4714 22.5761C30.3363 22.8013 30.3813 23.3869 30.6515 23.8374C31.4171 25.2789 40.3341 32.7566 49.7464 39.8739C53.7545 42.892 56.6367 46.2704 55.9162 47.1263C55.691 47.3966 53.5293 48.748 51.0974 50.0993C43.2613 54.4688 38.6678 60.0095 36.7763 67.352C36.416 68.7935 35.155 71.6765 33.9841 73.7937C32.1377 77.082 31.8224 77.4424 31.5072 76.6316C30.8767 74.9649 30.2462 56.0905 30.2462 39.6486C30.2462 26.5402 30.1561 23.9725 29.5707 23.477C28.3097 22.441 27.9945 23.477 27.9494 29.0177C27.9044 32.3511 27.7693 33.8827 27.5892 32.9367C26.9587 29.8286 26.5083 53.5679 27.0487 59.7392C27.3189 62.9375 27.7243 68.3431 27.9494 71.7215C28.3998 78.5235 29.4356 82.0371 31.0568 82.0371C32.6781 82.0371 33.7139 80.5055 40.6043 68.2079C47.2244 56.4058 54.43 50.2795 62.4462 49.6939C65.959 49.4687 67.265 48.9732 66.9047 48.1173C66.7696 47.7569 64.3377 46.2254 61.4555 44.6037C58.1679 42.8019 56.5467 41.6757 57.0871 41.5856C60.3746 41.1352 62.6714 40.4595 62.6714 39.9189C62.6714 38.7027 59.9693 37.4414 46.8641 32.5313C43.8018 31.3601 41.9103 30.234 38.0823 27.2159C32.6781 22.9815 30.8767 21.9004 30.4714 22.5761ZM60.9151 39.2883L61.9959 39.8288L60.7349 40.1892C60.0594 40.3694 58.5732 40.5946 57.4474 40.6396C55.5559 40.7748 55.1506 40.5946 52.6736 38.5675C47.1343 34.0629 47.0893 34.153 53.7095 36.5404C57.0871 37.7116 60.3296 38.9729 60.9151 39.2883ZM60.1945 46.9011C60.3296 47.1263 60.1495 47.3515 59.7892 47.3515C59.3839 47.3515 59.0686 47.1263 59.0686 46.9011C59.0686 46.6308 59.2488 46.4506 59.4739 46.4506C59.7441 46.4506 60.0594 46.6308 60.1945 46.9011ZM42.4057 60.1447C42.4057 60.2347 42.0454 60.5951 41.6401 60.9104C40.9195 61.496 40.8745 61.451 41.4599 60.7303C42.0454 60.0095 42.4057 59.7843 42.4057 60.1447Z" fill="#FF0000"/>
</svg>
