<svg width="93" height="48" viewBox="0 0 93 48" fill="none" xmlns="http://www.w3.org/2000/svg">
<path d="M5.59122 41.8381C25.1072 23.622 32.3399 18.0846 42.1376 13.8805C47.723 11.4998 50.6518 10.7589 57.584 9.93994C65.8808 8.95981 71.7992 9.16338 81.3493 10.828C83.7513 11.2495 86.3411 11.6206 87.0944 11.6727C87.8477 11.7248 88.5869 11.8913 88.7191 12.0732C88.8513 12.255 89.0249 12.3192 89.0969 12.226C89.2889 11.9777 89.2172 7.38784 88.9984 3.66171L88.7677 0.30371L89.7324 1.91058C94.63 10.1054 93.043 18.9253 86.3166 21.0176C84.7425 21.5138 81.3767 21.6011 80.8263 21.1584C80.704 21.06 81.4909 20.4592 82.6053 19.8198C86.0511 17.833 88.4006 15.4678 88.8867 13.4921C89.1057 12.5353 88.9561 12.4401 87.704 12.6163C87.1582 12.6807 84.5805 12.6467 81.9658 12.5324C71.5515 11.9855 64.8876 12.2649 57.3704 13.5197C47.707 15.1126 40.4035 18.1758 30.288 24.8436C25.8972 27.732 23.5299 29.4786 7.32377 41.7463C3.51262 44.6226 0.307168 47.0042 0.225291 47.0139C0.143415 47.0235 2.5541 44.7076 5.59122 41.8381Z" fill="#FF0000" style="fill:#FF0000;fill:color(display-p3 1.0000 0.0000 0.0000);fill-opacity:1;"/>
</svg>
