<svg width="83" height="108" viewBox="0 0 83 108" fill="none" xmlns="http://www.w3.org/2000/svg">
<path d="M37.6883 1.14754C31.878 3.12452 20.8511 11.6634 14.6166 18.9824C5.03172 30.2554 0.536133 41.5704 0.536133 54.4418C0.536133 63.5275 3.25045 72.8235 8.29738 81.0259C15.5921 92.8457 26.5766 101.847 38.7062 105.885C42.0143 106.979 43.6259 107.273 47.655 107.442C53.4653 107.694 55.8403 107.231 60.3359 105.086C65.9766 102.352 72.211 95.2012 74.9678 88.3028C75.7312 86.3679 75.5615 84.3909 74.5861 84.3909C74.2468 84.3909 72.9744 85.4846 71.7445 86.8306C65.5525 93.4345 58.3002 97.1782 48.7576 98.6925C44.2197 99.4496 36.0343 99.029 31.9204 97.8512C19.0698 94.2337 11.0965 84.1385 8.33979 68.1124C7.36433 62.56 7.70362 51.0767 9.01837 45.1038C11.4358 33.957 15.7193 25.5864 22.5899 18.73C28.2306 13.0935 33.8713 9.89672 41.2085 8.25625C44.4741 7.49911 50.963 7.91975 54.5256 9.09752C57.2399 10.0229 57.664 10.3174 60.8024 13.8927C71.278 25.7125 79.2937 41.949 80.6933 53.9371C80.9901 56.7132 80.9053 57.5966 80.2692 59.4474C78.1486 65.4624 72.1686 70.468 67.673 69.9632C66.6976 69.8791 64.6194 69.164 63.0502 68.4489L60.2087 67.1449L61.2265 66.0092L62.2444 64.8735L60.8872 65.7989C59.2756 66.9346 58.5546 66.9767 57.664 65.9672C57.0278 65.2942 57.0702 65.0838 58.0457 63.1069C59.6149 59.9521 59.7846 57.0918 58.6395 52.8013C58.1305 50.8664 57.5368 48.3426 57.3247 47.2069C55.7979 38.4577 49.4362 31.4332 40.6995 28.7832C38.4517 28.1102 37.0098 27.984 34.5075 28.1102C28.1458 28.4887 23.4806 31.8538 20.4694 38.2474C18.0095 43.5053 17.4158 46.7863 17.1613 56.0402C16.9493 65.2942 17.2885 67.0188 20.0029 71.141C22.7596 75.3052 26.5342 76.7354 31.157 75.3894C33.0231 74.8846 33.7865 74.8425 34.8892 75.1791C36.5432 75.7679 39.3848 75.4314 41.7598 74.2957C42.7777 73.833 45.492 72.9918 47.8246 72.4029C50.1572 71.814 53.4229 70.7203 55.0769 69.9211L58.1305 68.491L58.385 70.2997C58.5546 71.3092 58.9363 72.3187 59.2332 72.5711C60.1238 73.3283 65.8918 74.0013 68.9878 73.7068C76.7066 72.9918 80.9053 68.6592 81.9656 60.4148C83.2803 50.2355 82.9411 45.6085 80.4812 38.2895C76.537 26.5117 68.6485 15.1546 60.9721 10.2332C59.3604 9.18165 56.6885 7.2888 55.0769 6.02689C51.684 3.29278 47.9094 1.39993 44.7286 0.726913C41.6326 0.0959625 40.5723 0.138023 37.6883 1.14754ZM49.2242 4.47055C51.1327 5.48007 52.6171 6.3634 52.5747 6.40546C52.4898 6.48959 51.1327 6.3634 49.521 6.11102C40.3602 4.80705 29.503 9.05546 21.1904 17.2157C13.2595 24.9975 8.50944 34.7141 6.17682 48.0902C5.37101 52.7593 5.24377 65.1259 5.96476 68.533C6.64334 71.9402 5.75271 70.1735 4.60761 65.883C-0.26968 48.0061 5.03172 31.0125 20.1725 16.1221C24.2016 12.1681 31.0298 6.78403 34.8044 4.59674C37.9428 2.74595 39.5544 2.32532 42.7777 2.49357C45.3223 2.61976 46.2554 2.91421 49.2242 4.47055ZM71.3204 23.4411C76.028 30.3395 79.1241 37.322 80.7357 44.4307C81.8384 49.4363 81.6687 50.9085 80.4812 46.3236C78.3182 37.8689 72.7624 26.8062 66.2311 17.8046L63.6864 14.3554L66.1886 16.9213C67.5458 18.3515 69.8784 21.2538 71.3204 23.4411ZM34.2954 30.5919C32.9383 30.8022 30.7329 31.4332 29.4181 32.022C27.9338 32.653 27.4248 32.7792 28.061 32.3165C29.715 31.1387 32.8535 30.1713 34.8892 30.2133C36.7553 30.2133 36.7553 30.2554 34.2954 30.5919ZM38.8334 35.5974C38.7486 38.1212 38.9607 37.995 39.4696 35.2189L39.7665 33.4522L42.4384 34.7982C45.5768 36.3546 49.521 39.8458 52.1505 43.3371L54.0166 45.8609L53.7198 49.226C53.4229 52.8013 52.3202 55.7458 50.3693 58.1434L49.3514 59.3632L50.4541 56.6291C53.2956 49.5625 51.5568 43.253 45.9585 40.4768C42.9049 38.9625 41.1236 38.4998 36.0767 37.953L31.3691 37.4903L32.599 36.0601C34.253 34.1252 36.1191 33.0316 37.6459 33.1578C38.9183 33.284 38.9183 33.326 38.8334 35.5974ZM29.7998 34.9665C29.503 35.3451 29.1637 35.5133 29.0364 35.3871C28.9092 35.303 29.0789 34.9244 29.3757 34.5458C29.6726 34.1673 30.0119 33.999 30.1391 34.1252C30.2664 34.2093 30.0967 34.5879 29.7998 34.9665ZM27.5096 37.6585C27.34 37.9109 26.7887 38.1212 26.3221 38.1212C25.4315 38.1212 25.4315 38.0792 26.1949 37.28C27.0007 36.3966 28.061 36.7331 27.5096 37.6585ZM27.2552 40.0561C27.0007 40.645 26.4918 42.4958 26.0677 44.1363C25.0074 48.5109 25.1346 59.4474 26.2797 63.6537C26.7462 65.3362 26.9583 66.7243 26.7462 66.7243C25.7708 66.7243 23.0989 64.4108 22.4203 63.0227L21.6569 61.4664L22.6324 62.3077C23.4806 63.0648 23.4806 62.9807 22.4627 61.4664C21.36 59.868 21.3176 59.5315 21.3176 54.4418V49.0998L23.1413 45.6085C24.7105 42.4958 27.0855 38.9625 27.5096 38.9625C27.5945 38.9625 27.4672 39.4673 27.2552 40.0561ZM41.7598 40.2244C50.3693 42.8744 52.6171 49.3521 48.0791 58.522C46.213 62.3077 44.6014 64.1585 41.2085 66.3878L38.9183 67.9021L38.6214 66.5981C38.4517 65.841 37.6035 62.1394 36.7553 58.3116C35.5678 52.7593 32.7262 43.2109 31.1994 39.4252C30.8601 38.5419 38.1549 39.0887 41.7598 40.2244ZM25.177 40.603C24.6681 41.276 23.7775 42.6641 23.1837 43.6736C21.869 45.8609 22.2507 44.2625 23.6926 41.3601C24.2864 40.2665 25.0074 39.3831 25.3891 39.3831C25.9404 39.3831 25.898 39.5935 25.177 40.603ZM32.0901 48.1323C33.1079 51.2871 34.8468 57.1759 35.8646 61.172C37.4763 67.187 37.6883 68.491 37.1794 68.7013C36.4584 68.9537 31.4115 68.491 30.8177 68.0703C29.3333 67.0188 28.1034 60.8354 28.1034 54.3998C28.1034 49.1839 29.1637 41.7387 29.8423 42.1172C30.0119 42.2434 31.0298 44.9355 32.0901 48.1323ZM57.5792 58.7323C57.2823 60.4989 56.3068 62.9386 55.8403 62.9386C55.7555 62.9386 55.4586 62.4759 55.2466 61.887C54.9497 61.0878 55.0769 60.3727 55.8827 58.6482C56.4765 57.4283 56.943 56.0402 56.9854 55.5775C56.9854 54.8624 57.0702 54.9045 57.4095 55.7878C57.664 56.3767 57.7064 57.6807 57.5792 58.7323ZM51.0479 62.4339C48.4184 66.2616 45.7889 68.7013 44.0076 68.9116C43.2018 68.9957 42.5232 68.9957 42.5232 68.8275C42.5232 68.7013 43.3714 68.1124 44.3893 67.4394C45.4072 66.8084 47.655 64.8315 49.3514 63.0227C51.0903 61.214 52.5747 59.7839 52.6171 59.8259C52.7019 59.868 52.0233 61.0458 51.0479 62.4339ZM54.9497 63.0227C55.2466 64.0743 54.059 65.5886 52.193 66.5561C50.4541 67.4394 50.4541 67.3132 52.2778 64.9156C53.2108 63.7378 53.9742 62.6021 53.9742 62.3918C53.9742 61.6767 54.7376 62.1815 54.9497 63.0227ZM22.081 67.1029C22.7172 67.86 24.1592 69.164 25.3467 69.9632C27.4672 71.4354 27.4672 71.4354 25.9828 71.141C22.081 70.3418 20.3846 68.4068 19.4515 63.5696C19.2395 62.4339 19.2819 62.4339 20.0877 63.9902C20.5966 64.9156 21.4873 66.3037 22.081 67.1029ZM80.1419 63.9902C79.8875 64.7894 79.1241 65.9251 78.4031 66.4299C76.1553 68.1124 75.7736 68.1545 77.1307 66.6823C77.8517 65.883 78.8696 64.6211 79.3785 63.864C80.566 62.1394 80.7357 62.1815 80.1419 63.9902ZM57.1126 66.6823C57.8761 67.4815 57.8336 67.5235 56.2644 68.1965C54.78 68.8275 47.8246 70.9306 47.3157 70.9306C46.5523 70.9306 48.3335 69.6688 49.4362 69.4164C51.1751 69.0799 54.5256 67.3973 55.2041 66.5561C55.9251 65.6727 56.222 65.7148 57.1126 66.6823ZM78.1486 67.9862C75.8584 71.183 72.211 72.6132 66.4431 72.6132C61.2689 72.6132 60.039 72.3608 59.7421 71.141C59.6149 70.5941 59.3604 69.837 59.2332 69.4584C58.9787 68.9116 59.4029 68.9957 61.2265 69.8791C64.2377 71.3933 67.8851 71.7299 70.9811 70.7203C73.9075 69.7529 77.0035 68.2386 77.6821 67.3973C78.6999 66.1775 79.0816 66.6823 78.1486 67.9862ZM64.3226 70.0053C64.0681 70.2997 61.3962 69.2061 60.3359 68.4068C59.5301 67.7338 59.8694 67.818 61.8627 68.7013C63.3047 69.3743 64.4074 69.9632 64.3226 70.0053ZM33.6169 70.3418C33.6169 70.4259 33.2352 70.51 32.7686 70.51C32.3021 70.51 31.9204 70.3418 31.9204 70.1314C31.9204 69.9211 32.3021 69.837 32.7686 69.9632C33.2352 70.0894 33.6169 70.2576 33.6169 70.3418ZM42.3536 71.141C40.9964 72.1505 38.791 71.856 39.8513 70.8045C39.9785 70.6362 40.7843 70.51 41.6326 70.51C43.0745 70.5521 43.117 70.5941 42.3536 71.141ZM29.6726 73.9592C28.5699 74.2537 27.5945 74.2537 26.7038 73.9592C25.5163 73.5806 25.686 73.5386 28.3155 73.5386C31.1146 73.5386 31.1994 73.5806 29.6726 73.9592ZM67.461 95.4115C63.8984 99.9123 60.76 102.268 56.1372 103.824C50.6661 105.675 41.6326 104.834 35.3133 101.889C34.041 101.3 33.3624 100.88 33.8289 101.006C36.416 101.637 42.5232 101.889 46.3402 101.595C53.7198 100.964 60.5055 98.8187 65.8918 95.3695C67.3762 94.4441 68.6909 93.6449 68.7333 93.6449C68.8181 93.6449 68.2668 94.4441 67.461 95.4115Z" fill="#FF0000"/>
</svg>
