<svg width="90" height="47" viewBox="0 0 90 47" fill="none" xmlns="http://www.w3.org/2000/svg">
<path d="M73.6996 44.1724C72.9956 43.8564 72.1804 43.3969 71.8863 43.1654C71.2025 42.6902 71.2025 42.6902 74.4201 42.3226C77.1717 42.0577 78.7174 41.607 80.057 40.7419C82.7001 39.0395 82.0727 36.3389 77.3424 29.0074C76.1796 27.2094 75.4262 25.7547 75.6173 25.7789C76.6999 25.9166 81.0922 29.2899 82.7522 31.2482C87.3075 36.6484 86.6258 42.7742 81.2669 44.7138C79.745 45.2322 79.0242 45.3023 77.1814 45.0357C75.9396 44.8778 74.3718 44.4844 73.6996 44.1724Z" fill="#FF0000" style="fill:#FF0000;fill:color(display-p3 1.0000 0.0000 0.0000);fill-opacity:1;"/>
<path d="M72.1688 35.8563C72.0176 35.7723 67.8747 35.0192 62.9954 34.2047C35.4943 29.6085 31.2551 27.3224 9.83727 5.67115C4.99438 0.752099 3.5723 -0.787651 5.01111 0.36595C7.98021 2.71714 24.06 14.4358 27.67 16.8361C37.2991 23.302 44.1847 26.1511 65.9448 32.6383C71.9011 34.3986 72.8876 34.7828 73.6624 35.5608L74.3774 36.2988L73.4262 36.1456C72.9168 36.0808 72.3517 35.9442 72.1688 35.8563Z" fill="#FF0000" style="fill:#FF0000;fill:color(display-p3 1.0000 0.0000 0.0000);fill-opacity:1;"/>
</svg>
