<svg width="71" height="120" viewBox="0 0 71 120" fill="none" xmlns="http://www.w3.org/2000/svg">
<g clip-path="url(#clip0_342_212)">
<path d="M36.8481 1.10255C35.163 1.88585 31.3828 6.35524 30.1987 9.11981C28.6957 12.5295 27.9215 17.4135 27.8759 23.9564C27.8304 30.6374 28.1947 32.204 30.5175 35.2911L31.6106 36.7655L29.6977 38.5625C28.6502 39.5301 25.872 41.4653 23.5037 42.8476C17.8107 46.2112 14.5315 49.8051 11.5711 55.9793C7.74544 63.9966 6.1514 72.106 6.1514 84.0397C6.1514 96.3881 7.79099 104.405 11.0702 107.769C11.9355 108.69 12.3454 109.013 11.981 108.506C10.7058 106.847 9.47612 103.945 8.61078 100.673C7.88207 98.0008 7.74544 95.7892 7.79099 87.7719C7.79099 82.2428 8.01871 76.5293 8.33751 74.4098C10.0682 63.5819 13.3929 55.4725 18.2661 50.2198C19.9513 48.4228 21.4542 46.9945 21.6819 46.9945C21.9097 46.9945 21.272 48.3307 20.2701 49.9433C11.1157 64.6416 7.74544 85.6985 11.6622 104.129C12.482 108.045 12.5731 106.433 11.7989 101.318C10.8424 95.0059 10.8424 83.579 11.7989 78.0037C13.7573 66.6229 17.9473 56.5322 24.4146 47.5474C26.874 44.1838 27.466 43.6309 30.5175 42.1104L33.8878 40.4056L35.5273 41.88C38.3511 44.3681 41.9035 43.7691 45.9569 40.1291C46.9589 39.2076 48.9173 37.9174 50.2836 37.3185L52.6975 36.1665L55.1568 38.839C60.3489 44.5063 63.5825 54.2745 65.131 69.111C66.4973 81.8281 65.7231 112.837 63.9924 115.648C63.6736 116.201 61.4875 116.201 50.2381 115.694C42.9055 115.372 33.66 115.003 29.7432 114.865C25.7809 114.726 22.5473 114.45 22.5473 114.312C22.5473 114.081 36.4382 112.192 46.9134 110.994C51.9232 110.441 53.1529 110.119 52.9252 109.52C52.8341 109.197 51.9688 108.644 50.9668 108.276C49.5549 107.769 46.4124 107.631 35.4363 107.585C26.874 107.585 21.4998 107.769 21.2265 108.045C20.9077 108.368 24.7334 108.506 32.7036 108.506C48.7807 108.506 50.1925 109.013 38.0323 110.395C20.4978 112.377 5.51378 113.805 1.68808 113.805C0.822737 113.805 0.640561 114.035 0.777193 114.819C0.913825 115.832 1.14155 115.878 7.51772 116.201C17.6285 116.708 49.1906 118.366 57.7529 118.873C62.8083 119.196 65.6775 119.196 66.2696 118.873C67.5904 118.182 68.3191 111.455 69.0023 93.301C69.2755 86.7121 69.6854 79.1556 69.9131 76.4832C70.5963 68.8346 70.4597 56.394 69.6399 50.5884C68.0458 38.9772 64.5389 32.8491 58.2083 30.6374L56.4776 30.0384L56.6143 26.6288C56.9786 17.5057 50.147 5.11118 42.8144 1.56332C40.2184 0.31926 38.8976 0.227104 36.8481 1.10255ZM43.6342 4.88081C44.5906 5.52587 45.2738 6.17094 45.1827 6.30917C45.0461 6.40132 44.0896 5.89448 42.9966 5.11118C40.6738 3.40636 41.2204 3.17599 43.6342 4.88081ZM41.5392 7.32285C43.7253 8.93551 47.1411 13.9117 47.1411 15.5244C47.1411 16.1234 47.3233 16.5381 47.5054 16.3999C48.1886 15.9852 49.5094 21.2379 49.7371 25.1083C49.9648 28.7483 49.9648 28.7944 48.5985 30.1306C47.4144 31.2364 46.7767 31.4668 44.2263 31.605C42.5867 31.6972 40.7194 32.0197 40.0818 32.2501C38.1234 32.9873 36.8937 32.803 35.664 31.4207C33.8878 29.4855 33.4323 28.3336 33.0224 24.2789C32.3393 17.3675 33.7056 10.0874 36.2105 7.36892C37.8046 5.61803 39.2164 5.61803 41.5392 7.32285ZM50.0104 12.0687C50.7846 13.5431 50.7846 13.5431 50.0104 12.4373C49.5549 11.8383 48.644 10.6403 47.9609 9.85703C47.2322 9.07374 46.6856 8.19829 46.6856 8.01398C46.7312 7.41499 49.0539 10.2717 50.0104 12.0687ZM30.563 13.2206C30.0165 15.2479 28.969 17.7361 28.9234 16.9988C28.9234 16.7685 30.1076 12.4373 30.563 11.1011C30.6541 10.7325 30.8363 10.5482 30.9729 10.6864C31.064 10.7786 30.8818 11.9305 30.563 13.2206ZM30.5175 30.8678C30.7452 31.9275 30.6997 31.9736 30.1987 31.0982C29.8799 30.5913 29.6066 28.2875 29.5611 26.0298L29.4244 21.8829L29.8343 25.7994C30.0621 27.965 30.3809 30.2227 30.5175 30.8678ZM54.2004 27.4121C54.0182 29.1169 53.6994 29.9463 53.2895 29.9463C52.743 29.9463 52.743 29.6698 53.2895 28.0571C53.6539 26.9974 53.9727 25.7072 53.9727 25.2004C53.9727 24.6936 54.1093 24.371 54.246 24.5553C54.4281 24.6936 54.3826 25.9837 54.2004 27.4121ZM58.7548 34.047C64.3568 36.6273 67.3627 45.4739 67.8637 60.8173C68.0914 67.9131 68.0003 68.0974 67.1805 62.6604C65.4498 51.2795 60.9865 40.9585 55.7489 36.2126C54.246 34.8303 54.0182 34.3696 54.4737 33.8167C55.1568 32.9412 56.5232 33.0334 58.7548 34.047ZM34.161 34.5539C34.2977 34.7843 34.2066 35.0146 33.9788 35.0146C33.7056 35.0146 33.4779 34.7843 33.4779 34.5539C33.4779 34.2774 33.5689 34.0931 33.66 34.0931C33.7967 34.0931 34.0244 34.2774 34.161 34.5539ZM47.3233 35.7058C47.0045 36.4891 46.3668 36.7195 43.2698 37.0881C41.6303 37.3185 41.1748 37.2724 41.6758 36.9038C42.0401 36.6273 42.8599 36.3969 43.4976 36.3969C44.1352 36.3509 45.2738 36.0744 46.0025 35.7058C46.7767 35.3833 47.4144 35.0607 47.4599 35.0607C47.5054 35.0146 47.4599 35.3372 47.3233 35.7058ZM43.4976 39.3919C43.4976 39.484 42.9055 39.8987 42.1312 40.3134C40.5827 41.0967 38.3511 41.2349 37.0758 40.5438C35.3907 39.5762 36.2561 39.1615 39.854 39.1615C41.858 39.1615 43.4976 39.2537 43.4976 39.3919Z" fill="#FF0000"/>
</g>
<defs>
<clipPath id="clip0_342_212">
<rect width="71" height="120" fill="white"/>
</clipPath>
</defs>
</svg>
