<svg width="101" height="83" viewBox="0 0 101 83" fill="none" xmlns="http://www.w3.org/2000/svg">
<g clip-path="url(#clip0_344_3)">
<path d="M63.3334 57.2425C62.7112 57.4647 61.0667 57.7758 59.6445 57.8647C56.6223 58.0425 54.0445 59.1092 51.4667 61.1981C50.4445 62.0425 49.1556 63.0203 48.6223 63.3758C47.6001 64.1314 47.2445 66.487 47.1556 73.3758C47.1112 76.3981 47.289 77.2425 48.2223 78.887C49.7778 81.5981 51.3778 82.7092 53.7778 82.6647C56.3556 82.6203 59.6445 80.487 62.5334 76.9758C63.7778 75.4647 65.5112 73.5092 66.4445 72.6203C67.4223 71.687 68.2667 70.3536 68.4445 69.5092C68.6223 68.7092 69.2445 66.6647 69.8223 65.0203C71.8667 59.1981 70.9778 56.6647 66.7556 56.7536C65.4667 56.7536 63.9556 56.9758 63.3334 57.2425ZM68.4001 58.7536C69.2001 59.5092 69.3778 62.2647 68.6667 62.7092C68.4445 62.8425 68.2223 62.5758 68.2223 62.0425C68.2223 60.5314 67.4223 59.4203 65.8667 58.7536L64.4445 58.1314L66.089 58.087C67.0223 58.0425 68.0001 58.3536 68.4001 58.7536ZM64.3556 61.4203C65.1112 61.687 66.0001 64.7536 66.0001 67.0203C66.0001 69.1092 64.4001 71.3314 62.9334 71.3758C62.4001 71.3758 62.4445 71.2425 62.9778 70.5758C64.1778 69.2425 65.1112 67.0203 65.1112 65.5981C65.1112 63.8647 63.2445 62.6647 59.8223 62.2203C57.6001 61.9536 57.4667 61.8647 58.2667 61.287C59.0667 60.6647 62.6223 60.7536 64.3556 61.4203ZM62.3556 64.7536C64.0001 65.3758 63.5112 67.2425 60.9778 69.9092C59.2001 71.8203 58.7112 71.7758 59.6445 69.7758C60.5334 67.9536 60.1334 66.9314 58.3112 66.3092C57.3778 65.9536 56.889 66.1314 55.5556 67.1536C54.2223 68.1314 53.8223 68.2647 53.5112 67.7758C52.9778 66.9314 52.9778 66.9314 54.0001 65.2425L54.9334 63.7314L58.1334 64.0425C59.9112 64.2203 61.7778 64.5314 62.3556 64.7536ZM52.8001 65.5981C52.4445 66.3536 52.2667 67.2425 52.4001 67.5981C52.7112 68.4425 52.0445 68.4425 51.3334 67.5981C50.9334 67.1092 50.9778 66.7092 51.6001 65.5981C52.7112 63.7758 53.7334 63.7758 52.8001 65.5981ZM58.6223 67.1981C60.0001 67.7314 59.1112 70.9758 57.6445 70.887C57.0223 70.887 57.0667 70.7981 57.7778 70.5314C58.5334 70.2203 58.4445 70.1314 57.1112 69.8203C56.2667 69.6425 55.3778 69.4203 55.2001 69.287C54.5334 68.887 55.8667 67.687 57.8667 66.9758C57.9112 66.9314 58.2223 67.0647 58.6223 67.1981ZM52.4001 71.8203C51.7778 73.4203 51.689 75.4203 52.2223 76.0425C52.9778 76.9314 54.8445 76.5758 57.4223 75.1092C58.4445 74.5314 59.9112 74.0425 60.7112 74.0425H62.1778L60.4445 75.8647C55.1112 81.4203 51.9112 81.687 50.1778 76.8425C49.5556 75.1092 49.3334 70.3981 49.8223 69.9092C50.3556 69.3758 52.7112 71.1092 52.4001 71.8203ZM56.6223 73.9092C56.3556 74.1758 55.5556 74.6203 54.8445 74.887C53.3334 75.4203 52.8445 74.7981 53.289 72.9758C53.5556 71.9092 53.5556 71.9092 55.289 72.6203C56.5334 73.1536 56.9334 73.5092 56.6223 73.9092Z" fill="#FF0000"/>
<path d="M55.2444 40.0868C55.1111 40.2201 51.7333 40.5312 47.7333 40.7534C43.7333 41.0201 40.1333 41.4201 39.6889 41.6423C38.0889 42.4868 38.8 43.2423 41.6 43.5534L44.2666 43.8645L41.9555 45.0645C39.3777 46.3534 38.5777 47.2868 39.0222 48.4423C39.4666 49.5979 43.0222 49.3312 49.3777 47.5534C55.8666 45.7756 55.3777 45.7756 70.2222 47.3312C82.3111 48.6645 86 48.5312 86 46.9312C86 45.909 84.3555 45.2423 80.0444 44.4868C78.1333 44.1756 76.5777 43.8201 76.5333 43.7756C75.6889 42.1756 75.2 41.7312 73.6444 41.2868C70.4444 40.3534 55.9111 39.3756 55.2444 40.0868ZM72.8889 45.109C74.4 45.4201 74.4444 45.509 73.3333 45.509C72.6222 45.509 71.4222 45.3312 70.6666 45.1534C68.8 44.6645 70.6222 44.6645 72.8889 45.109Z" fill="#FF0000"/>
<path d="M47.3332 3.59875C46.9776 3.68764 45.1554 3.99875 43.3332 4.26542C34.0443 5.77653 21.5109 11.3321 10.2221 18.9765C1.37761 25.021 -1.46684 27.8654 -0.177948 29.421C1.11094 31.021 5.02205 29.3765 14.2221 23.3765C19.1109 20.1765 20.4443 19.5543 30.2221 16.0432C42.4443 11.6432 47.4221 10.2654 53.9998 9.37653C61.2887 8.35431 62.7554 8.48764 72.3109 10.9321C88.3998 15.021 97.1554 16.3988 99.3332 15.2876C101.066 14.3543 100.933 13.3321 99.022 12.1321C96.7554 10.7099 92.9332 9.37653 87.5554 8.08764L83.1109 7.02097L85.7776 6.70986C89.3332 6.30986 90.622 5.86542 90.7998 5.06542C90.9776 4.0432 89.9109 3.90986 83.3332 4.30986C67.4665 5.2432 61.0221 5.28764 58.0443 4.53209C55.3776 3.82097 48.7554 3.2432 47.3332 3.59875ZM46.5776 7.68764C46.2665 7.77653 45.7332 7.77653 45.4665 7.68764C45.1554 7.55431 45.3776 7.46542 45.9998 7.46542C46.6221 7.46542 46.8443 7.55431 46.5776 7.68764ZM44.3554 8.13208C44.0443 8.22097 43.5109 8.22097 43.2443 8.13208C42.9332 7.99875 43.1554 7.90986 43.7776 7.90986C44.3998 7.90986 44.6221 7.99875 44.3554 8.13208ZM80.2221 8.48764C85.5109 9.33208 91.9998 11.1099 95.022 12.4876C96.9776 13.3765 97.1554 13.5099 96.1332 13.5543C93.7776 13.6432 71.7776 8.75431 70.9332 7.99875C70.4443 7.55431 76.3998 7.90986 80.2221 8.48764ZM36.8887 12.2654C34.4887 13.3765 23.5554 17.5099 23.4221 17.3765C23.3332 17.3321 24.5332 16.4876 26.0887 15.5543C27.7776 14.4876 30.3998 13.421 32.6665 12.8432C36.6665 11.821 38.3998 11.5988 36.8887 12.2654ZM15.3776 19.3321C13.9998 20.3543 11.3776 21.8654 11.9998 21.2876C12.5776 20.6654 15.9109 18.4876 16.2221 18.4876C16.3554 18.4876 15.9554 18.8876 15.3776 19.3321Z" fill="#FF0000"/>
<path d="M42.6661 21.376C37.0217 22.4426 31.9106 25.376 29.155 29.2871C28.3995 30.3093 26.5772 32.0426 25.155 33.0649C21.2439 35.9093 19.9106 37.4649 20.5328 38.3982C21.3328 39.5982 22.755 39.1982 29.9995 35.6426C38.1328 31.6871 46.7106 28.7093 50.1328 28.7093C56.4883 28.7093 64.9328 30.7982 79.7772 36.0871C83.4661 37.4204 85.1106 37.776 87.6884 37.776C90.755 37.8204 91.0217 37.7315 92.0439 36.5315C92.8884 35.5982 93.1106 34.8426 93.0217 33.6871L92.8884 32.0871L80.4439 27.9538C59.6439 21.1093 51.5995 19.6871 42.6661 21.376ZM59.1106 23.4204C64.3106 24.4426 66.0884 24.976 79.1106 29.5982C84.4883 31.5093 89.3328 33.1982 89.9106 33.376C91.9995 33.9982 90.7106 35.8204 88.1772 35.8204C86.6217 35.8204 86.4883 35.7315 86.5772 34.576C86.6661 33.5538 86.355 33.2426 84.6661 32.3538C83.555 31.8204 80.1328 30.7982 77.1106 30.0871C74.0439 29.376 69.8661 28.176 67.7772 27.4204C62.7995 25.6426 57.3328 24.976 52.5772 25.5982C50.5328 25.8204 47.6883 26.0426 46.1772 26.0426C41.3772 26.0426 32.2661 28.3538 30.1328 30.1315C29.8217 30.3982 29.4217 30.5315 29.3328 30.3982C28.8439 29.9538 33.555 26.0426 36.0439 24.7982C41.7328 21.9538 49.3328 21.5093 59.1106 23.4204Z" fill="#FF0000"/>
</g>
<defs>
<clipPath id="clip0_344_3">
<rect width="101" height="83" fill="white"/>
</clipPath>
</defs>
</svg>
